<svg width="36" height="38" viewBox="0 0 36 38" fill="none" xmlns="http://www.w3.org/2000/svg">
<path d="M6.61739 0.988281C2.96849 0.988281 0 3.95677 0 7.60568C0 11.255 2.96849 14.224 6.61739 14.224C10.2668 14.224 13.2357 11.255 13.2357 7.60568C13.2357 3.95722 10.2668 0.988281 6.61739 0.988281ZM6.61739 11.5167C4.46153 11.5167 2.70724 9.76199 2.70724 7.60568C2.70724 5.44981 4.46153 3.69552 6.61739 3.69552C8.77371 3.69552 10.5285 5.44981 10.5285 7.60568C10.5285 9.76244 8.77371 11.5167 6.61739 11.5167Z" fill="#BABABA"/>
<path d="M28.2751 14.224C31.9245 14.224 34.8934 11.255 34.8934 7.60568C34.8934 3.95677 31.9245 0.988281 28.2751 0.988281C24.6258 0.988281 21.6577 3.95677 21.6577 7.60568C21.6577 11.255 24.6262 14.224 28.2751 14.224ZM28.2751 3.69552C30.4314 3.69552 32.1862 5.44981 32.1862 7.60568C32.1862 9.76199 30.4314 11.5167 28.2751 11.5167C26.1188 11.5167 24.365 9.76199 24.365 7.60568C24.365 5.44981 26.1188 3.69552 28.2751 3.69552Z" fill="#BABABA"/>
<path d="M6.61769 16.5376C3.35457 16.5376 0.699219 19.1929 0.699219 22.4565V31.6363C0.699219 34.8999 3.35457 37.5552 6.61769 37.5552C9.88172 37.5552 12.5371 34.8999 12.5371 31.6363V22.457C12.5371 19.1929 9.88172 16.5376 6.61769 16.5376ZM9.82983 31.6363C9.82983 33.4073 8.38913 34.848 6.61769 34.848C4.84671 34.848 3.40646 33.4073 3.40646 31.6363V22.457C3.40646 20.686 4.84671 19.2453 6.61769 19.2453C8.38913 19.2453 9.82983 20.686 9.82983 22.457V31.6363Z" fill="#BABABA"/>
<path d="M35.9883 36.0252L34.1938 22.3622C34.1438 19.142 31.5078 16.5376 28.2754 16.5376C25.0429 16.5376 22.4079 19.142 22.3578 22.3622L20.5624 36.0252C20.5115 36.4114 20.6292 36.8013 20.8869 37.0941C21.1445 37.3869 21.5145 37.5548 21.9048 37.5548H34.6459C35.0353 37.5548 35.4067 37.3869 35.663 37.0941C35.9206 36.8013 36.0388 36.4114 35.9883 36.0252ZM23.4479 34.848L25.0528 22.6329C25.0601 22.5743 25.0641 22.5156 25.0641 22.4565C25.0641 20.6855 26.5039 19.2448 28.2754 19.2448C30.0468 19.2448 31.4875 20.6855 31.4875 22.4565C31.4875 22.5156 31.4911 22.5743 31.4988 22.6329L33.1028 34.848H23.4479Z" fill="#BABABA"/>
</svg>
